<?xml version="1.0" standalone="no"?>
<!DOCTYPE svg PUBLIC "-//W3C//DTD SVG 20010904//EN"
 "http://www.w3.org/TR/2001/REC-SVG-20010904/DTD/svg10.dtd">
<svg version="1.0" xmlns="http://www.w3.org/2000/svg"
 width="591.000000pt" height="591.000000pt" viewBox="0 0 591.000000 591.000000"
 preserveAspectRatio="xMidYMid meet">
<metadata>
Created by potrace 1.14, written by Peter Selinger 2001-2017
</metadata>
<g transform="translate(0.000000,591.000000) scale(0.100000,-0.100000)"
fill="#000000" stroke="none">
<path d="M2193 5673 c-45 -15 -98 -62 -106 -95 -3 -10 -4 -79 -2 -151 2 -73 4
-149 4 -169 1 -37 2 -38 36 -38 l35 0 -5 -202 c-3 -111 -7 -204 -9 -205 -2 -2
-16 -6 -32 -9 -56 -9 -54 -2 -54 -179 l0 -165 24 0 c45 0 88 -13 94 -28 9 -24
-41 -59 -94 -67 -97 -14 -258 -91 -355 -169 -103 -83 -163 -174 -194 -293 -14
-53 -18 -79 -30 -173 -12 -97 -2 -2421 11 -2500 3 -19 7 -50 10 -69 2 -18 13
-58 23 -89 l19 -56 -59 -83 -60 -82 -2 -245 -2 -245 29 -29 c67 -71 248 -139
468 -177 135 -23 196 -29 483 -41 77 -3 174 -7 215 -9 461 -21 833 -21 1045 1
22 2 69 6 105 9 73 6 242 24 280 30 14 3 50 7 80 11 119 12 285 55 346 90 95
52 124 84 125 136 0 23 2 117 4 207 5 183 -4 245 -55 361 -25 57 -28 72 -19
101 5 19 12 50 15 69 2 19 7 45 9 57 10 46 14 148 20 493 4 195 8 416 10 490
6 191 5 1468 0 1510 -5 36 -10 73 -21 145 -8 53 -52 191 -75 237 -39 77 -172
190 -289 245 -57 27 -174 68 -221 78 -30 6 -101 46 -94 53 3 4 36 7 73 8 37 0
79 2 95 2 l27 2 -5 167 c-4 114 -10 170 -18 175 -7 4 -33 8 -59 8 l-48 0 0
188 0 188 43 11 c62 17 67 34 67 233 0 167 0 169 -26 200 -47 55 -164 91 -214
65 -26 -13 -30 -21 -30 -55 0 -31 -4 -40 -17 -40 -10 -1 -76 -4 -148 -8 -180
-9 -725 -9 -930 1 -93 5 -217 10 -274 12 -57 2 -107 8 -111 12 -4 4 -13 25
-20 46 -6 20 -15 38 -18 39 -28 6 -63 3 -99 -9z"/>
</g>
</svg>
